<svg width="87" height="107" viewBox="0 0 87 107" fill="none" xmlns="http://www.w3.org/2000/svg">
<path d="M56.2917 89.5001C49.1173 93.6422 37.4853 93.6422 30.3109 89.5001C23.1365 85.358 23.1365 78.6422 30.3109 74.5001C37.4853 70.358 49.1173 70.358 56.2917 74.5001C63.466 78.6422 63.466 85.358 56.2917 89.5001Z" fill="#929292"/>
<path d="M62.3538 93C72.8763 86.9249 72.8763 77.0751 62.3538 71C51.8314 64.9249 34.7711 64.9249 24.2487 71C13.7263 77.0751 13.7263 86.9249 24.2487 93L21.6506 94.5C9.6933 87.5964 9.6933 76.4036 21.6506 69.5C33.6079 62.5964 52.9946 62.5964 64.9519 69.5C76.9092 76.4036 76.9092 87.5964 64.9519 94.5C52.9946 101.404 33.6079 101.404 21.6506 94.5L24.2487 93C34.7711 99.0751 51.8314 99.0751 62.3538 93Z" fill="#929292"/>
<path d="M41 0H45V82H41V0Z" fill="#9F9F9F"/>
<path d="M45 0H61V4H45V0Z" fill="#1548B6"/>
<path d="M45 24H61V28H45V24Z" fill="#1548B6"/>
<path d="M45 4H70V8H45V4Z" fill="#1548B6"/>
<path d="M45 20H70V24H45V20Z" fill="#1548B6"/>
<path d="M45 8H78V12H45V8Z" fill="#1548B6"/>
<path d="M45 16H78V20H45V16Z" fill="#1548B6"/>
<path d="M45 12H82V16H45V12Z" fill="#1548B6"/>
</svg>
