<svg width="87" height="107" viewBox="0 0 87 107" fill="none" xmlns="http://www.w3.org/2000/svg">
<path d="M62.3538 92.9999C72.8763 86.9248 72.8763 77.075 62.3538 70.9999C51.8314 64.9248 34.7711 64.9248 24.2487 70.9999C13.7263 77.075 13.7263 86.9248 24.2487 92.9999L21.6506 94.4999C9.6933 87.5963 9.6933 76.4035 21.6506 69.4999C33.6079 62.5964 52.9946 62.5964 64.9519 69.4999C76.9092 76.4035 76.9092 87.5963 64.9519 94.4999C52.9946 101.404 33.6079 101.404 21.6506 94.4999L24.2487 92.9999C34.7711 99.075 51.8314 99.075 62.3538 92.9999Z" fill="#DC1010"/>
<path d="M24.2434 70.7518L26.5103 67.5142L62.5683 92.7623L60.3013 95.9998L24.2434 70.7518Z" fill="#DC1010"/>
<path d="M60.2079 68.0366L62.2719 71.0763L25.1888 96.2561L23.1248 93.2164L60.2079 68.0366Z" fill="#DC1010"/>
</svg>
